<svg width="525" height="193" fill="none" xmlns="http://www.w3.org/2000/svg"><path d="M256.2 143.89c-1.54 0-2.76-.4-3.66-1.22a5.6 5.6 0 01-1.63-3.26L236.14 52.8c-.1-.28-.14-.6-.14-.95 0-.73.27-1.36.81-1.9a2.85 2.85 0 012.04-.95h16.8c2.54 0 3.94 1 4.2 2.98l8.82 52.87 9.76-31.18c1-2.44 2.48-3.66 4.47-3.66h9.76c2.26 0 3.75 1.22 4.47 3.66l9.76 31.18 8.81-52.87c.28-1.99 1.68-2.98 4.2-2.98h16.82c.8 0 1.49.32 2.03.95.63.54.95 1.17.95 1.9l-.14.95-14.77 86.61a5.3 5.3 0 01-1.77 3.26 5.06 5.06 0 01-3.52 1.22h-12.88a4.93 4.93 0 01-3.39-1.09 6.49 6.49 0 01-1.76-2.44l-13.69-38.77-13.69 38.77c-.81 2.35-2.48 3.53-5.01 3.53H256.2zM357.06 143.89a3.6 3.6 0 01-2.44-.95 3.6 3.6 0 01-.95-2.44V52.39c0-1 .31-1.8.95-2.44a3.6 3.6 0 012.44-.95h36.87c11.83 0 21.05 2.71 27.65 8.13 6.69 5.34 10.03 12.93 10.03 22.78 0 6.32-1.49 11.7-4.47 16.13a28.57 28.57 0 01-12.34 10.16l18.57 33.35c.27.54.41 1.04.41 1.5 0 .71-.32 1.4-.95 2.02a2.6 2.6 0 01-1.9.82H412.9a5.66 5.66 0 01-5.55-3.66l-15.46-29.82h-13.82v30.09c0 1-.36 1.8-1.09 2.44a3.3 3.3 0 01-2.44.95h-17.48zm36.6-52.73c4.15 0 7.32-1 9.48-2.99 2.17-2.07 3.26-4.92 3.26-8.53 0-3.62-1.09-6.47-3.25-8.54-2.08-2.17-5.25-3.26-9.5-3.26h-15.58v23.32h15.59zM471.47 143.89a3.6 3.6 0 01-2.44-.95 3.6 3.6 0 01-.95-2.44v-29.14l-31.44-58.02a7.5 7.5 0 01-.41-1.5c0-.72.27-1.35.81-1.9a2.99 2.99 0 012.17-.94h16.94c1.81 0 3.4.95 4.75 2.85l19.38 34.97 19.52-34.97a5.17 5.17 0 014.75-2.85h16.94c.81 0 1.5.32 2.03.95.55.54.82 1.17.82 1.9 0 .45-.1.95-.27 1.49l-31.45 58.02v29.14c0 1-.36 1.8-1.09 2.44a3.3 3.3 0 01-2.44.95h-17.62z" fill="#F6F6F6"/><path d="M119.04 69.86a18.3 18.3 0 11-36.6 0 18.3 18.3 0 0136.6 0z" fill="#FFC131"/><circle cx="69.97" cy="122.25" transform="rotate(180 69.97 122.25)" fill="#FFC131" r="18.3"/><path fill-rule="evenodd" clip-rule="evenodd" d="M138.66 128.53a69.85 69.85 0 01-24.1 9.8 49 49 0 002.33-22.12 49.08 49.08 0 10-56.04-74.96 81.5 81.5 0 00-26.78 7.78 69.86 69.86 0 11104.6 79.5zM34.9 61.77l17.12 2.1c.41-3.32 1.15-6.57 2.21-9.7a69.88 69.88 0 00-19.33 7.6z" fill="#FFC131"/><path fill-rule="evenodd" clip-rule="evenodd" d="M31.94 63.58a69.85 69.85 0 0124.3-9.85 48.97 48.97 0 00-2.74 22.23 49.09 49.09 0 1056.26 74.88 81.48 81.48 0 0026.8-7.83A69.86 69.86 0 1131.94 63.58zm84.44 74.33z" fill="#FFC131"/></svg>