<?xml version="1.0" encoding="UTF-8" standalone="no"?>
<!DOCTYPE svg PUBLIC "-//W3C//DTD SVG 1.1//EN" "http://www.w3.org/Graphics/SVG/1.1/DTD/svg11.dtd">
<svg width="100%" height="100%" viewBox="0 0 1595 1087" version="1.1" xmlns="http://www.w3.org/2000/svg" xmlns:xlink="http://www.w3.org/1999/xlink" xml:space="preserve" xmlns:serif="http://www.serif.com/" style="fill-rule:evenodd;clip-rule:evenodd;stroke-linecap:round;stroke-linejoin:round;stroke-miterlimit:1.5;">
    <g transform="matrix(1,0,0,1,-511.637,-785)">
        <g transform="matrix(0.985675,0,0,0.971342,7.88399,23.6063)">
            <rect x="550.371" y="823.733" width="1539.23" height="1038.79" style="fill:white;fill-opacity:0;stroke:white;stroke-opacity:0;stroke-width:79.17px;"/>
        </g>
        <g transform="matrix(5.1826,0,0,5.1826,-1536.4,-4159.76)">
            <path d="M536.465,1068.18L536.465,987.285L552.286,987.285L552.286,1003.01C556.322,995.651 560.049,990.801 563.467,988.457C566.885,986.113 570.645,984.941 574.746,984.941C580.671,984.941 586.693,986.829 592.813,990.605L592.81,990.613L592.813,990.613L610.518,1047.34C613.318,1054.96 615.824,1062.97 618.038,1071.37C620.056,1063.29 622.465,1055.42 625.264,1047.73L647.432,987.285L665.01,987.285L625.557,1092.75C621.325,1104.15 618.038,1111.99 615.694,1116.29C612.569,1122.08 608.988,1126.33 604.952,1129.03C600.915,1131.74 596.098,1133.09 590.499,1133.09C587.113,1133.09 583.337,1132.37 579.17,1130.94L577.217,1114.43C581.058,1115.48 584.411,1116 587.276,1116C591.182,1116 594.307,1115.35 596.651,1114.04C598.995,1112.74 600.915,1110.92 602.413,1108.57C603.519,1106.82 605.31,1102.45 607.784,1095.49C608.109,1094.51 608.63,1093.08 609.346,1091.19L581.994,1004.62C579.285,1003.61 576.576,1003.11 573.868,1003.11C570.026,1003.11 566.576,1004.26 563.516,1006.57C560.456,1008.88 558.275,1012.09 556.973,1016.19C555.02,1022.44 554.043,1029.28 554.043,1036.7L554.043,1091L525.314,1091L508.81,1028.89L504.806,1011.21L483.81,1091L465.45,1091L433.712,987.285L451.876,987.285L468.38,1047.15L474.533,1069.41C474.793,1068.31 476.583,1061.18 479.904,1048.03L496.408,987.285L514.474,987.285L530.001,1047.44L536.465,1068.18Z" style="fill:rgb(31,89,123);fill-rule:nonzero;stroke:url(#_Linear1);stroke-width:6.25px;stroke-linecap:butt;stroke-miterlimit:2;"/>
        </g>
    </g>
    <defs>
        <linearGradient id="_Linear1" x1="0" y1="0" x2="1" y2="0" gradientUnits="userSpaceOnUse" gradientTransform="matrix(231.298,0,0,148.145,433.712,1059.01)"><stop offset="0" style="stop-color:rgb(255,144,22);stop-opacity:1"/><stop offset="0.25" style="stop-color:rgb(255,230,74);stop-opacity:1"/><stop offset="0.77" style="stop-color:rgb(68,245,202);stop-opacity:1"/><stop offset="1" style="stop-color:rgb(10,152,241);stop-opacity:1"/></linearGradient>
    </defs>
</svg>
