<?xml version="1.0" encoding="UTF-8" standalone="no"?>
<!DOCTYPE svg PUBLIC "-//W3C//DTD SVG 1.1//EN" "http://www.w3.org/Graphics/SVG/1.1/DTD/svg11.dtd">
<svg width="100%" height="100%" viewBox="0 0 1080 460" version="1.1" xmlns="http://www.w3.org/2000/svg" xmlns:xlink="http://www.w3.org/1999/xlink" xml:space="preserve" xmlns:serif="http://www.serif.com/" style="fill-rule:evenodd;clip-rule:evenodd;stroke-linejoin:round;stroke-miterlimit:2;">
    <g id="g1363" transform="matrix(1,0,0,1,-127.037,-123.337)">
        <g id="text899" transform="matrix(1,0,0,1,35.0285,195.392)">
            <g id="path899">
                <path d="M710.873,220.019C710.873,225.623 707.371,228.424 700.367,228.424C693.48,228.424 690.036,225.623 690.036,220.019L690.036,105.677L659.393,105.677C655.19,105.677 652.972,102.7 652.739,96.747C652.739,90.91 654.957,87.991 659.393,87.991L741.516,87.991C745.952,87.991 748.054,90.91 747.82,96.747C747.82,102.7 745.719,105.677 741.516,105.677L710.873,105.677L710.873,220.019Z" style="fill-rule:nonzero;fill:white;"/>
                <path d="M741.516,85.325C744.06,85.325 746.04,86.08 747.513,87.419C749.497,89.223 750.656,92.3 750.486,96.798L750.483,97.167C750.39,100.9 749.493,105.16 746.028,107.209C745.472,107.537 744.875,107.792 744.256,107.974C743.364,108.235 742.443,108.334 741.516,108.344L713.54,220.019C713.529,221.293 713.391,222.562 713.017,223.784C712.774,224.576 712.438,225.34 712.003,226.045C709.317,230.407 703.68,231.319 698.96,231.052C695.629,230.864 692.102,229.915 689.824,227.321C688.047,225.299 687.392,222.66 687.369,220.019L687.369,108.344L659.393,108.344C656.965,108.344 655.018,107.595 653.507,106.22C651.532,104.421 650.251,101.347 650.074,96.851L650.072,96.747C650.072,92.253 651.327,89.185 653.376,87.388C654.886,86.062 656.875,85.325 659.393,85.325L741.516,85.325ZM741.516,105.677C745.719,105.677 747.82,102.7 747.82,96.747C748.054,90.91 745.952,87.991 741.516,87.991L659.393,87.991C654.957,87.991 652.739,90.91 652.739,96.747C652.972,102.7 655.19,105.677 659.393,105.677L690.036,105.677L690.036,220.019C690.036,225.623 693.48,228.424 700.367,228.424C707.371,228.424 710.873,225.623 710.873,220.019L710.873,105.677L741.516,105.677Z" style="fill:transparent;"/>
            </g>
            <g id="path901">
                <path d="M809.352,105.152L771.005,222.821L771.005,222.646C770.304,224.397 769.312,225.856 768.028,227.023C766.861,228.074 765.402,228.599 763.65,228.599C762.717,228.599 761.783,228.483 760.849,228.249C760.032,228.132 759.156,227.957 758.222,227.724L758.397,227.724C751.743,225.623 749.292,221.887 751.043,216.517L790.966,95.171C791.55,93.303 792.542,91.727 793.943,90.443C795.461,89.159 797.212,88.4 799.196,88.167C801.181,87.816 803.107,87.583 804.975,87.466C806.843,87.233 808.302,87.116 809.352,87.116C810.403,87.116 811.862,87.233 813.73,87.466C815.598,87.583 817.524,87.758 819.508,87.991C821.143,88.225 822.719,89.1 824.236,90.618C825.87,92.136 827.096,93.653 827.913,95.171C834.45,115.249 841.046,135.503 847.7,155.931C854.471,176.243 861.125,196.439 867.662,216.517C869.296,221.887 866.845,225.623 860.307,227.724C859.374,227.957 858.498,228.132 857.681,228.249C856.98,228.483 856.163,228.599 855.229,228.599C853.595,228.599 852.078,228.074 850.677,227.023C849.393,225.856 848.459,224.397 847.875,222.646L847.875,222.821L809.352,105.152Z" style="fill-rule:nonzero;fill:white"/>
                <path d="M804.722,84.811C806.693,84.566 808.237,84.449 809.352,84.449C810.467,84.449 812.008,84.566 813.977,84.81C815.866,84.929 817.814,85.107 819.82,85.343C819.842,85.346 819.864,85.348 819.885,85.352C822.017,85.656 824.107,86.729 826.087,88.698C827.947,90.43 829.328,92.174 830.261,93.906L830.449,94.345C836.986,114.423 843.582,134.677 850.23,155.088C857.002,175.406 863.658,195.607 870.213,215.741C871.071,218.561 870.994,221.038 870.136,223.172C868.915,226.206 866.006,228.693 861.123,230.263C861.068,230.281 861.011,230.297 860.954,230.311C860.008,230.547 859.117,230.729 858.28,230.856C857.394,231.121 856.378,231.266 855.229,231.266C853.023,231.266 850.968,230.575 849.077,229.157C849.01,229.106 848.945,229.053 848.883,228.997C847.455,227.698 846.364,226.118 845.622,224.247L845.591,224.197C845.49,224.021 845.408,223.842 845.341,223.651L773.54,223.647C773.446,223.915 773.323,224.158 773.161,224.391L773.15,224.405C772.318,226.212 771.203,227.741 769.812,229.006C768.165,230.488 766.12,231.266 763.65,231.266C762.55,231.266 761.449,231.135 760.348,230.87C759.483,230.743 758.558,230.557 757.576,230.311C757.327,230.249 757.094,230.153 756.882,230.03C752.34,228.452 749.625,226.048 748.48,223.16C747.63,221.015 747.583,218.525 748.508,215.691C748.508,215.688 748.509,215.686 748.51,215.684C748.51,215.684 788.433,94.337 788.421,94.375C789.15,92.044 790.393,90.08 792.141,88.477C792.167,88.453 792.194,88.43 792.221,88.407C794.126,86.795 796.32,85.835 798.805,85.528C800.835,85.172 802.808,84.933 804.722,84.811ZM809.352,105.152L771.005,222.821L771.005,222.646C770.304,224.397 769.312,225.856 768.028,227.023C766.861,228.074 765.402,228.599 763.65,228.599C762.717,228.599 761.783,228.483 760.849,228.249C760.032,228.132 759.156,227.957 758.222,227.724L758.397,227.724C751.743,225.623 749.292,221.887 751.043,216.517L790.966,95.171C791.55,93.303 792.542,91.727 793.943,90.443C795.461,89.159 797.212,88.4 799.196,88.167C801.181,87.816 803.107,87.583 804.975,87.466C806.843,87.233 808.302,87.116 809.352,87.116C810.403,87.116 811.862,87.233 813.73,87.466C815.598,87.583 817.524,87.758 819.508,87.991C821.143,88.225 822.719,89.1 824.236,90.618C825.87,92.136 827.096,93.653 827.913,95.171C834.45,115.249 841.046,135.503 847.7,155.931C854.471,176.243 861.125,196.439 867.662,216.517C869.296,221.887 866.845,225.623 860.307,227.724C859.374,227.957 858.498,228.132 857.681,228.249C856.98,228.483 856.163,228.599 855.229,228.599C853.595,228.599 852.078,228.074 850.677,227.023C849.393,225.856 848.459,224.397 847.875,222.646L847.875,222.821L809.352,105.152Z" style="fill:transparent;"/>
            </g>
            <g id="path903">
                <path d="M977.722,199.007C977.722,208.462 974.571,215.525 968.267,220.194C965.232,222.412 962.08,224.163 958.811,225.448C955.659,226.615 952.566,227.199 949.531,227.199L911.358,227.199C908.323,227.199 905.171,226.615 901.903,225.448C898.751,224.163 895.657,222.412 892.622,220.194C889.587,217.86 887.252,215 885.618,211.614C883.984,208.112 883.167,203.91 883.167,199.007L883.167,95.521C883.167,89.918 886.61,87.116 893.498,87.116C900.502,87.116 904.004,89.918 904.004,95.521L904.004,197.606C904.004,200.641 904.88,203.384 906.631,205.836C908.382,208.287 911.417,209.513 915.736,209.513L945.153,209.513C949.472,209.513 952.508,208.287 954.259,205.836C956.01,203.384 956.885,200.641 956.885,197.606L956.885,95.521C956.885,89.918 960.329,87.116 967.216,87.116C974.22,87.116 977.722,89.918 977.722,95.521L977.722,199.007Z" style="fill-rule:nonzero;fill:white;"/>
                <path d="M949.531,229.865L911.358,229.865C908.036,229.865 904.584,229.237 901.006,227.959L900.897,227.917C897.553,226.555 894.269,224.701 890.996,222.308C887.624,219.714 885.032,216.535 883.202,212.742C881.42,208.925 880.5,204.351 880.5,199.007L880.5,95.521C880.5,92.565 881.304,90.225 882.757,88.452C884.819,85.936 888.344,84.449 893.498,84.449C898.715,84.449 902.285,85.931 904.372,88.435C905.853,90.212 906.671,92.558 906.671,95.521C906.671,95.521 906.671,197.606 906.671,197.606C906.671,200.069 907.379,202.296 908.801,204.286C910.119,206.132 912.484,206.846 915.736,206.846L945.153,206.846C948.405,206.846 950.77,206.132 952.089,204.286C953.51,202.296 954.219,200.069 954.219,197.606L954.219,95.521C954.219,92.565 955.022,90.225 956.476,88.451C958.537,85.936 962.062,84.449 967.216,84.449C972.433,84.449 976.003,85.931 978.09,88.435C979.571,90.212 980.389,92.558 980.389,95.521L980.389,199.007C980.389,209.439 976.809,217.185 969.84,222.347C966.614,224.705 963.261,226.564 959.738,227.948C956.272,229.232 952.868,229.865 949.531,229.865ZM949.531,227.199C952.566,227.199 955.659,226.615 958.811,225.448C962.08,224.163 965.232,222.412 968.267,220.194C974.571,215.525 977.722,208.462 977.722,199.007L977.722,95.521C977.722,89.918 974.22,87.116 967.216,87.116C960.329,87.116 956.885,89.918 956.885,95.521L956.885,197.606C956.885,200.641 956.01,203.384 954.259,205.836C952.508,208.287 949.472,209.513 945.153,209.513L915.736,209.513C911.417,209.513 908.382,208.287 906.631,205.836C904.88,203.384 904.004,200.641 904.004,197.606L904.004,95.521C904.004,89.918 900.502,87.116 893.498,87.116C886.61,87.116 883.167,89.918 883.167,95.521L883.167,199.007C883.167,203.91 883.984,208.112 885.618,211.614C887.252,215 889.587,217.86 892.622,220.194C895.657,222.412 898.751,224.163 901.903,225.448C905.171,226.615 908.323,227.199 911.358,227.199L949.531,227.199Z" style="fill:transparent;"/>
            </g>
            <g id="path905">
                <path d="M1053.96,169.414L1040.48,169.414C1038.5,169.414 1036.92,168.656 1035.75,167.138C1034.7,165.504 1034.18,163.344 1034.18,160.659C1034.18,154.706 1036.63,151.729 1041.53,151.729L1062.02,151.729C1066.34,151.729 1069.37,150.503 1071.12,148.052C1072.88,145.6 1073.75,142.915 1073.75,139.997L1073.75,117.409C1073.75,114.49 1072.88,111.805 1071.12,109.354C1069.37,106.903 1066.34,105.677 1062.02,105.677L1025.07,105.677L1025.07,219.844C1025.07,225.448 1021.63,228.249 1014.74,228.249C1007.85,228.249 1004.41,225.448 1004.41,219.844L1004.41,98.498C1004.41,94.295 1005.46,91.493 1007.56,90.093C1009.78,88.692 1012.41,87.991 1015.44,87.991L1066.4,87.991C1069.43,87.991 1072.58,88.633 1075.85,89.918C1079.12,91.202 1082.27,92.836 1085.31,94.82L1085.13,94.82C1088.17,97.038 1090.5,99.957 1092.14,103.576C1093.77,107.078 1094.59,111.163 1094.59,115.833L1094.59,141.398C1094.59,150.854 1091.44,157.916 1085.13,162.585C1083.85,163.519 1082.45,164.395 1080.93,165.212C1079.53,166.029 1078.07,166.846 1076.55,167.663L1104.57,213.891C1104.92,214.474 1105.27,215.233 1105.62,216.167C1105.97,217.101 1106.14,217.86 1106.14,218.443C1106.14,221.245 1104.16,223.93 1100.19,226.498L1100.19,226.323C1097.51,227.957 1095.23,228.774 1093.36,228.774C1090.68,228.774 1088.52,227.432 1086.88,224.747L1087.06,224.922L1053.96,169.414Z" style="fill-rule:nonzero;fill:white;"/>
                <path d="M1027.74,108.344L1027.74,219.844C1027.74,222.8 1026.93,225.14 1025.48,226.914C1023.42,229.429 1019.89,230.916 1014.74,230.916C1009.59,230.916 1006.06,229.429 1004,226.914C1002.55,225.14 1001.74,222.8 1001.74,219.844L1001.74,98.498C1001.74,93.125 1003.4,89.665 1006.14,87.838C1008.76,86.183 1011.85,85.325 1015.44,85.325L1066.4,85.325C1069.74,85.325 1073.22,86.019 1076.83,87.436C1080.26,88.785 1083.58,90.502 1086.77,92.589C1087.04,92.766 1087.27,92.986 1087.45,93.236C1090.5,95.645 1092.87,98.72 1094.55,102.448C1096.34,106.274 1097.25,110.732 1097.25,115.833C1097.25,115.833 1097.25,141.398 1097.25,141.398C1097.25,151.83 1093.67,159.576 1086.7,164.742C1085.34,165.734 1083.85,166.666 1082.24,167.535L1081.19,168.139L1080.27,168.659L1106.86,212.519C1107.84,214.219 1108.75,216.283 1108.81,218.286C1108.84,219.464 1108.59,220.651 1108.15,221.738C1107.82,222.55 1107.38,223.314 1106.86,224.024C1106.18,224.965 1105.38,225.812 1104.51,226.58C1103.88,227.134 1103.22,227.648 1102.54,228.13C1101.99,228.516 1101.47,228.91 1100.82,229.09L1100.7,229.114C1097.86,230.714 1095.39,231.441 1093.36,231.441C1089.76,231.441 1086.8,229.738 1084.61,226.134C1084.5,225.961 1084.42,225.781 1084.36,225.596L1052.45,172.081L1040.48,172.081C1037.61,172.081 1035.33,170.963 1033.64,168.764C1033.59,168.705 1033.55,168.643 1033.51,168.58C1032.22,166.578 1031.51,163.949 1031.51,160.659C1031.51,156.912 1032.41,154.14 1033.96,152.266C1035.65,150.209 1038.14,149.062 1041.53,149.062L1062.02,149.062C1065.27,149.062 1067.63,148.347 1068.95,146.502C1070.37,144.521 1071.08,142.355 1071.08,139.997L1071.08,117.409C1071.08,115.051 1070.37,112.884 1068.95,110.904C1067.63,109.058 1065.27,108.344 1062.02,108.344L1027.74,108.344ZM1085.31,94.82C1082.27,92.836 1079.12,91.202 1075.85,89.918C1072.58,88.633 1069.43,87.991 1066.4,87.991L1015.44,87.991C1012.41,87.991 1009.78,88.692 1007.56,90.093C1005.46,91.493 1004.41,94.295 1004.41,98.498L1004.41,219.844C1004.41,225.448 1007.85,228.249 1014.74,228.249C1021.63,228.249 1025.07,225.448 1025.07,219.844L1025.07,105.677L1062.02,105.677C1066.34,105.677 1069.37,106.903 1071.12,109.354C1072.88,111.805 1073.75,114.49 1073.75,117.409L1073.75,139.997C1073.75,142.915 1072.88,145.6 1071.12,148.052C1069.37,150.503 1066.34,151.729 1062.02,151.729L1041.53,151.729C1036.63,151.729 1034.18,154.706 1034.18,160.659C1034.18,163.344 1034.7,165.504 1035.75,167.138C1036.92,168.656 1038.5,169.414 1040.48,169.414L1053.96,169.414L1087.06,224.922L1086.88,224.747C1088.52,227.432 1090.68,228.774 1093.36,228.774C1095.23,228.774 1097.51,227.957 1100.19,226.323L1100.19,226.498C1104.16,223.93 1106.14,221.245 1106.14,218.443C1106.14,217.86 1105.97,217.101 1105.62,216.167C1105.27,215.233 1104.92,214.474 1104.57,213.891L1076.55,167.663C1078.07,166.846 1079.53,166.029 1080.93,165.212C1082.45,164.395 1083.85,163.519 1085.13,162.585C1091.44,157.916 1094.59,150.854 1094.59,141.398L1094.59,115.833C1094.59,111.163 1093.77,107.078 1092.14,103.576C1090.5,99.957 1088.17,97.038 1085.13,94.82L1085.31,94.82Z" style="fill:transparent;"/>
            </g>
            <g id="path907">
                <path d="M1143.94,219.669C1143.94,225.272 1140.43,228.074 1133.43,228.074C1126.54,228.074 1123.1,225.272 1123.1,219.669L1123.1,95.521C1123.1,89.918 1126.54,87.116 1133.43,87.116C1140.43,87.116 1143.94,89.918 1143.94,95.521L1143.94,219.669Z" style="fill-rule:nonzero;fill:white;"/>
                <path d="M1146.6,219.669L1146.6,95.521C1146.6,92.558 1145.79,90.212 1144.3,88.435C1142.22,85.931 1138.65,84.449 1133.43,84.449C1128.28,84.449 1124.75,85.936 1122.69,88.451C1121.24,90.225 1120.43,92.565 1120.43,95.521C1120.43,95.521 1120.43,219.669 1120.43,219.669C1120.43,222.625 1121.24,224.965 1122.69,226.738C1124.75,229.254 1128.28,230.741 1133.43,230.741C1138.65,230.741 1142.22,229.259 1144.3,226.755C1145.79,224.978 1146.6,222.632 1146.6,219.669ZM1143.94,219.669C1143.94,225.272 1140.43,228.074 1133.43,228.074C1126.54,228.074 1123.1,225.272 1123.1,219.669L1123.1,95.521C1123.1,89.918 1126.54,87.116 1133.43,87.116C1140.43,87.116 1143.94,89.918 1143.94,95.521L1143.94,219.669Z" style="fill:transparent;"/>
            </g>
        </g>
        <g id="g1324" transform="matrix(1,0,0,1,-548.514,-1204.31)">
            <g id="circle1316" transform="matrix(0.943487,-0.331409,0.331409,0.943487,0,0)">
                <circle cx="274.083" cy="1813.09" r="32" style="fill:url(#_Linear1);"/>
            </g>
            <g id="circle1318" transform="matrix(0.943487,-0.331409,0.331409,0.943487,0,0)">
                <circle cx="382.973" cy="1719.61" r="32" style="fill:url(#_Linear2);"/>
            </g>
            <path id="path1320" d="M796.022,1418.15C774.363,1456.07 768.621,1502.81 784.194,1547.15C788.574,1559.62 794.406,1571.16 801.408,1581.7C802.459,1583.58 803.998,1585.15 805.863,1586.23C811.564,1589.52 818.964,1587.54 822.255,1581.84C824.541,1577.87 824.359,1572.92 821.787,1569.12L821.814,1569.1C815.717,1560.01 810.636,1550.02 806.834,1539.2C782.657,1470.37 818.695,1395.3 887.526,1371.12C956.357,1346.94 1031.43,1382.98 1055.61,1451.81C1079.79,1520.64 1043.74,1595.72 974.911,1619.9C957.635,1625.96 939.969,1628.22 922.812,1627.13C922.794,1627.13 922.777,1627.13 922.76,1627.13C918.001,1626.56 913.337,1628.89 910.94,1633.04C907.649,1638.75 909.631,1646.14 915.332,1649.44C917.237,1650.53 919.405,1651.08 921.6,1651.03C941.81,1652.31 962.588,1649.66 982.864,1642.54C1063.93,1614.06 1106.73,1524.93 1078.25,1443.86C1049.77,1362.79 960.641,1320 879.572,1348.48C842.838,1361.38 813.965,1386.74 796.019,1418.15L796.022,1418.15Z" style="fill:url(#_Linear3);fill-rule:nonzero;"/>
            <path id="path1322" d="M724.265,1542.44C702.606,1580.36 696.868,1627.1 712.441,1671.44C740.917,1752.51 830.043,1795.3 911.111,1766.83C992.18,1738.35 1034.97,1649.22 1006.5,1568.15C1002.17,1555.81 996.41,1544.38 989.509,1533.94C988.459,1531.89 986.841,1530.19 984.85,1529.03C979.149,1525.74 971.749,1527.72 968.458,1533.42C966.171,1537.4 966.353,1542.35 968.925,1546.14L968.867,1546.18C974.968,1555.28 980.053,1565.27 983.856,1576.1C1008.03,1644.93 971.99,1720.01 903.159,1744.18C834.328,1768.36 759.26,1732.32 735.083,1663.48C710.905,1594.65 746.942,1519.58 815.773,1495.4C833.266,1489.26 851.161,1487.01 868.523,1488.2L868.524,1488.17C873.096,1488.5 877.473,1486.18 879.77,1482.22C883.061,1476.52 881.079,1469.12 875.378,1465.83C873.352,1464.66 871.029,1464.11 868.696,1464.25C848.608,1463.02 827.966,1465.68 807.819,1472.76C771.085,1485.66 742.21,1511.02 724.265,1542.43L724.265,1542.44Z" style="fill:url(#_Linear4);fill-rule:nonzero;"/>
        </g>
    </g>
    <defs>
        <linearGradient id="_Linear1" x1="0" y1="0" x2="1" y2="0" gradientUnits="userSpaceOnUse" gradientTransform="matrix(48.6643,-41.7777,41.7777,48.6643,249.699,1834.02)"><stop offset="0" style="stop-color:rgb(0,150,242);stop-opacity:1"/><stop offset="1" style="stop-color:rgb(76,255,196);stop-opacity:1"/></linearGradient>
        <linearGradient id="_Linear2" x1="0" y1="0" x2="1" y2="0" gradientUnits="userSpaceOnUse" gradientTransform="matrix(-48.5635,41.6911,-41.6911,-48.5635,407.745,1699.34)"><stop offset="0" style="stop-color:rgb(255,138,17);stop-opacity:1"/><stop offset="1" style="stop-color:rgb(255,245,80);stop-opacity:1"/></linearGradient>
        <linearGradient id="_Linear3" x1="0" y1="0" x2="1" y2="0" gradientUnits="userSpaceOnUse" gradientTransform="matrix(-150.612,260.867,-260.867,-150.612,960.685,1332.65)"><stop offset="0" style="stop-color:rgb(255,138,17);stop-opacity:1"/><stop offset="1" style="stop-color:rgb(255,245,80);stop-opacity:1"/></linearGradient>
        <linearGradient id="_Linear4" x1="0" y1="0" x2="1" y2="0" gradientUnits="userSpaceOnUse" gradientTransform="matrix(150.613,-260.87,260.87,150.613,781.584,1754.69)"><stop offset="0" style="stop-color:rgb(0,150,242);stop-opacity:1"/><stop offset="1" style="stop-color:rgb(76,255,196);stop-opacity:1"/></linearGradient>
    </defs>
</svg>
